<?xml version="1.0" encoding="UTF-8" standalone="no"?><!DOCTYPE svg PUBLIC "-//W3C//DTD SVG 1.1//EN" "http://www.w3.org/Graphics/SVG/1.1/DTD/svg11.dtd"><!-- Generated by graphviz version 2.40.1 (20161225.0304)
 --><!-- Title: G Pages: 1 --><svg xmlns="http://www.w3.org/2000/svg" xmlns:xlink="http://www.w3.org/1999/xlink" width="500pt" height="318pt" viewBox="0.00 0.00 500.00 318.40">
<g id="graph0" class="graph" transform="scale(1 1) rotate(0) translate(4 314.4)">
<title>G</title>
<polygon fill="#ffffff" stroke="transparent" points="-4,4 -4,-314.4 496,-314.4 496,4 -4,4"/>
<g id="clust1" class="cluster">
<title>cluster</title>
<polygon fill="#ffff00" stroke="#ffff00" points="8,-65 8,-141.8 484,-141.8 484,-65 8,-65"/>
<text text-anchor="middle" x="246" y="-125.2" font-family="Times,serif" font-size="14.00" fill="#000000">Course Types </text>
</g>
<!-- CombinedAlgorithm -->
<g id="node1" class="node">
<title>CombinedAlgorithm</title>
<polygon fill="none" stroke="#000000" points="292.1624,-204.8 159.8376,-204.8 159.8376,-168.8 292.1624,-168.8 292.1624,-204.8"/>
<text text-anchor="middle" x="226" y="-182.6" font-family="Times,serif" font-size="14.00" fill="#000000">CombinedAlgorithm</text>
</g>
<!-- CoreCourses -->
<g id="node3" class="node">
<title>CoreCourses</title>
<ellipse fill="none" stroke="#000000" cx="77" cy="-91" rx="60.8332" ry="18"/>
<text text-anchor="middle" x="77" y="-86.8" font-family="Times,serif" font-size="14.00" fill="#000000">CoreCourses</text>
</g>
<!-- CombinedAlgorithm&#45;&gt;CoreCourses -->
<g id="edge2" class="edge">
<title>CombinedAlgorithm-&gt;CoreCourses</title>
<path fill="none" stroke="#000000" d="M183.5281,-163.7426C171.5547,-156.938 158.6277,-149.2986 147,-141.8 130.4688,-131.1391 112.5264,-118.0867 98.9458,-107.8819"/>
<polygon fill="#000000" stroke="#000000" points="182.0292,-166.9152 192.4609,-168.7672 185.461,-160.8141 182.0292,-166.9152"/>
</g>
<!-- MajorElectives -->
<g id="node4" class="node">
<title>MajorElectives</title>
<ellipse fill="none" stroke="#000000" cx="226" cy="-91" rx="70.0577" ry="18"/>
<text text-anchor="middle" x="226" y="-86.8" font-family="Times,serif" font-size="14.00" fill="#000000">MajorElectives</text>
</g>
<!-- CombinedAlgorithm&#45;&gt;MajorElectives -->
<g id="edge3" class="edge">
<title>CombinedAlgorithm-&gt;MajorElectives</title>
<path fill="none" stroke="#000000" d="M226,-158.4337C226,-142.529 226,-123.1571 226,-109.2642"/>
<polygon fill="#000000" stroke="#000000" points="222.5001,-158.7807 226,-168.7808 229.5001,-158.7808 222.5001,-158.7807"/>
</g>
<!-- GeneralEducation -->
<g id="node5" class="node">
<title>GeneralEducation</title>
<ellipse fill="none" stroke="#000000" cx="395" cy="-91" rx="80.9988" ry="18"/>
<text text-anchor="middle" x="395" y="-86.8" font-family="Times,serif" font-size="14.00" fill="#000000">GeneralEducation</text>
</g>
<!-- CombinedAlgorithm&#45;&gt;GeneralEducation -->
<g id="edge4" class="edge">
<title>CombinedAlgorithm-&gt;GeneralEducation</title>
<path fill="none" stroke="#000000" d="M266.8597,-163.6381C297.2509,-146.4104 338.0225,-123.2985 365.3373,-107.8147"/>
<polygon fill="#000000" stroke="#000000" points="264.7611,-160.8045 257.7876,-168.7808 268.2131,-166.8941 264.7611,-160.8045"/>
</g>
<!-- DegreeSkeleton -->
<g id="node2" class="node">
<title>DegreeSkeleton</title>
<ellipse fill="none" stroke="#000000" cx="226" cy="-292.4" rx="72.9121" ry="18"/>
<text text-anchor="middle" x="226" y="-288.2" font-family="Times,serif" font-size="14.00" fill="#000000">DegreeSkeleton</text>
</g>
<!-- DegreeSkeleton&#45;&gt;CombinedAlgorithm -->
<g id="edge1" class="edge">
<title>DegreeSkeleton-&gt;CombinedAlgorithm</title>
<path fill="none" stroke="#000000" d="M226,-274.0059C226,-257.7279 226,-233.7223 226,-215.0163"/>
<polygon fill="#000000" stroke="#000000" points="229.5001,-214.9833 226,-204.9833 222.5001,-214.9834 229.5001,-214.9833"/>
<text text-anchor="middle" x="294.6238" y="-243.8" font-family="Times,serif" font-size="14.00" fill="#000000">First assign course types</text>
<text text-anchor="middle" x="294.6238" y="-227" font-family="Times,serif" font-size="14.00" fill="#000000">to each semesester</text>
</g>
<!-- Prerequisite -->
<g id="node6" class="node">
<title>Prerequisite</title>
<polygon fill="none" stroke="#000000" points="185.3641,-36 102.6359,-36 102.6359,0 185.3641,0 185.3641,-36"/>
<text text-anchor="middle" x="144" y="-13.8" font-family="Times,serif" font-size="14.00" fill="#000000">Prerequisite</text>
</g>
<!-- CoreCourses&#45;&gt;Prerequisite -->
<g id="edge5" class="edge">
<title>CoreCourses-&gt;Prerequisite</title>
<path fill="none" stroke="#000000" d="M100.1371,-65.7909C109.1296,-55.9932 119.2271,-44.9914 127.4651,-36.0157"/>
<polygon fill="#000000" stroke="#000000" points="97.4021,-63.5947 93.2188,-73.3287 102.5593,-68.328 97.4021,-63.5947"/>
</g>
<!-- MajorElectives&#45;&gt;Prerequisite -->
<g id="edge6" class="edge">
<title>MajorElectives-&gt;Prerequisite</title>
<path fill="none" stroke="#000000" d="M199.0705,-67.0262C187.7978,-56.9907 174.9102,-45.5176 164.4377,-36.1945"/>
<polygon fill="#000000" stroke="#000000" points="196.7708,-69.6649 206.5671,-73.7 201.4253,-64.4365 196.7708,-69.6649"/>
</g>
<!-- StudentInterest -->
<g id="node7" class="node">
<title>StudentInterest</title>
<polygon fill="none" stroke="#000000" points="304.2549,-36 203.7451,-36 203.7451,0 304.2549,0 304.2549,-36"/>
<text text-anchor="middle" x="254" y="-13.8" font-family="Times,serif" font-size="14.00" fill="#000000">StudentInterest</text>
</g>
<!-- MajorElectives&#45;&gt;StudentInterest -->
<g id="edge8" class="edge">
<title>MajorElectives-&gt;StudentInterest</title>
<path fill="none" stroke="#000000" d="M236.5655,-63.4542C240.0768,-54.2997 243.8953,-44.3443 247.0612,-36.0904"/>
<polygon fill="#000000" stroke="#000000" points="233.2348,-62.3648 232.9214,-72.9551 239.7705,-64.8717 233.2348,-62.3648"/>
</g>
<!-- DepartmentSuggestion -->
<g id="node8" class="node">
<title>DepartmentSuggestion</title>
<polygon fill="none" stroke="#000000" points="467.3061,-36 322.6939,-36 322.6939,0 467.3061,0 467.3061,-36"/>
<text text-anchor="middle" x="395" y="-13.8" font-family="Times,serif" font-size="14.00" fill="#000000">DepartmentSuggestion</text>
</g>
<!-- MajorElectives&#45;&gt;DepartmentSuggestion -->
<g id="edge10" class="edge">
<title>MajorElectives-&gt;DepartmentSuggestion</title>
<path fill="none" stroke="#000000" d="M271.2816,-71.4405C296.7664,-60.4323 328.3671,-46.7823 353.2518,-36.0332"/>
<polygon fill="#000000" stroke="#000000" points="269.6328,-68.3401 261.8406,-75.5186 272.4086,-74.7662 269.6328,-68.3401"/>
</g>
<!-- GeneralEducation&#45;&gt;Prerequisite -->
<g id="edge7" class="edge">
<title>GeneralEducation-&gt;Prerequisite</title>
<path fill="none" stroke="#000000" d="M336.1938,-73.7966C325.8125,-70.821 315.0981,-67.7893 305,-65 256.2657,-51.5385 243.3231,-50.8704 195,-36 191.859,-35.0334 188.6237,-33.9947 185.3784,-32.9216"/>
<polygon fill="#000000" stroke="#000000" points="335.4359,-77.2205 346.0138,-76.6225 337.3717,-70.4935 335.4359,-77.2205"/>
</g>
<!-- GeneralEducation&#45;&gt;StudentInterest -->
<g id="edge9" class="edge">
<title>GeneralEducation-&gt;StudentInterest</title>
<path fill="none" stroke="#000000" d="M353.8466,-69.6936C333.2177,-59.0134 308.5081,-46.2205 288.8313,-36.0332"/>
<polygon fill="#000000" stroke="#000000" points="352.5153,-72.9456 363.0049,-74.4352 355.7337,-66.7293 352.5153,-72.9456"/>
</g>
<!-- GeneralEducation&#45;&gt;DepartmentSuggestion -->
<g id="edge11" class="edge">
<title>GeneralEducation-&gt;DepartmentSuggestion</title>
<path fill="none" stroke="#000000" d="M395,-62.8688C395,-53.8769 395,-44.1687 395,-36.0904"/>
<polygon fill="#000000" stroke="#000000" points="391.5001,-62.955 395,-72.9551 398.5001,-62.9551 391.5001,-62.955"/>
</g>
</g>
</svg>